<?xml version="1.0" encoding="utf-8"?>
<!-- Generator: Adobe Illustrator 27.6.0, SVG Export Plug-In . SVG Version: 6.00 Build 0)  -->
<svg version="1.1" id="Layer_1" xmlns="http://www.w3.org/2000/svg" xmlns:xlink="http://www.w3.org/1999/xlink" x="0px" y="0px"
	 viewBox="0 0 841.3 510.5" style="enable-background:new 0 0 841.3 510.5;" xml:space="preserve">
<style type="text/css">
	.st0{fill:#EE4036;}
	.st1{fill:#262261;}
</style>
<g>
	<path class="st0" d="M340.2,140c0.1,0,0.1,0.1,0.2,0.1c20.4-33.4,44.2-64.6,71.1-93C361.3,12.3,298.8-4.4,237.9,1
		C80.4,14.8-40.2,175.4,12.6,329.7C42.3,416.6,123,482.9,213.4,498.9c43.6,7.8,89.4,4.6,131-10.7c67.6-24.8,119.7-78.6,169.4-130.8
		c49.1-51.6,98.2-103.3,147.3-154.9c5-5.2,10.2-11.1,10.7-18.3c0.7-10.1-8.2-18.2-16.8-23.6c-16.9-10.7-37.9-20.8-58.4-23.3
		c-30.5-3.8-44,14.9-64,34.7C480.3,223.7,428,275.5,375.7,327.3c-16,15.9-32.3,31.9-51.8,43.1c-55.4,31.9-133.4,15.2-171.7-36
		s-32.5-130,12.2-175.8C209,112.9,286.8,105,340.2,140z"/>
	<path class="st1" d="M344.3,316.1c1.3-1.2-9.1-51.5-9.3-57.8c-0.6-20.6,1.7-41.3,6.5-61.4c10-41.8,31.1-78.6,60.7-109.6
		c59.4-62.3,141.2-98,228.2-84.2C711.6,16,784.6,71.9,818.8,146.7s28.9,166.2-13.1,236.9s-119.5,118.9-201.5,126
		c-55.3,4.8-114.3-9.8-153.7-48.9c24.3-26,48.6-52,72.8-78.1c2.4-2.6,5-5.3,8.4-6.5c5-1.7,10.4,0.3,15.4,2
		c31.6,11,67.8,11.8,97.5-3.6c22.6-11.7,40-31.9,51.8-54.4c22.3-42.5,25.2-96.1,2.2-138.2c-23-42.1-73.2-69.4-120.3-60.3
		c-29.2,5.6-54.4,23.6-77.2,42.7C445.4,211.2,398.5,267.6,344.3,316.1z"/>
</g>
</svg>
