<?xml version="1.0" encoding="UTF-8"?>
<svg id="Layer_1" data-name="Layer 1" xmlns="http://www.w3.org/2000/svg" viewBox="0 0 1080 306.38">
  <defs>
    <style>
      .cls-1 {
        fill: #ee4036;
      }

      .cls-2 {
        fill: #262261;
      }
    </style>
  </defs>
  <g>
    <path class="cls-2" d="m473.58,124.72h-18.08v-21.82c-1.4-.5-2.82-.85-4.26-1.05-1.45-.2-2.87-.3-4.26-.3-8.67,0-15.47,3.12-20.4,9.34-4.93,6.23-7.4,15.02-7.4,26.38,0,12.26,2.96,21.82,8.89,28.7,5.93,6.88,14.32,10.31,25.18,10.31,3.59,0,7.1-.4,10.54-1.2,3.44-.8,6.7-1.89,9.79-3.29v14.5c-2.89,1.4-6.55,2.62-10.99,3.66-4.44,1.05-9.69,1.57-15.77,1.57-16.74,0-29.64-4.53-38.71-13.6-9.07-9.07-13.6-22.02-13.6-38.86,0-8.27,1.14-15.64,3.44-22.12,2.29-6.48,5.6-11.93,9.94-16.37,4.33-4.43,9.69-7.82,16.07-10.16,6.38-2.34,13.65-3.51,21.82-3.51,4.78,0,9.61.4,14.5,1.2,4.88.8,9.32,2.04,13.3,3.74v32.88Z"/>
    <path class="cls-2" d="m546.22,88.85l30.64,86.24h7.17v14.5h-42.45v-14.5h11.36l-4.63-14.05h-32.88l-4.63,14.05h11.51v14.5h-39.91v-14.5h7.17l24.21-71.74h-11.06v-14.5h43.49Zm-16.44,26.9l-10.16,31.54h24.36l-10.46-31.54-1.49-6.28h-.75l-1.49,6.28Z"/>
    <path class="cls-2" d="m631.41,88.85c5.88,0,11.23.65,16.07,1.94,4.83,1.3,8.99,3.24,12.48,5.83,3.49,2.59,6.2,5.81,8.15,9.64,1.94,3.84,2.91,8.35,2.91,13.53,0,6.58-1.55,12.08-4.63,16.52-3.09,4.43-7.02,7.95-11.81,10.54v.75l8.37,16.29c1.79,3.49,3.79,6.23,5.98,8.22,2.19,2,5.18,2.99,8.97,2.99h1.49v14.5c-3.19.6-6.38.9-9.57.9-3.49,0-6.58-.32-9.27-.97-2.69-.65-5.13-1.64-7.32-2.99-2.19-1.34-4.16-3.11-5.9-5.31-1.74-2.19-3.41-4.83-5.01-7.92l-11.21-21.52h-8.07v23.32h7.77v14.5h-38.86v-14.5h8.52v-71.74h-8.52v-14.5h39.46Zm-8.37,48.43h6.43c6.48,0,11.16-1.62,14.05-4.86,2.89-3.24,4.33-7.35,4.33-12.33s-1.47-9.14-4.41-12.18c-2.94-3.04-7.6-4.56-13.97-4.56h-6.43v33.93Z"/>
    <path class="cls-2" d="m760.99,88.85v30.79h-18.08v-16.29h-24.66v26.9h25.56v14.95h-25.56v29.89h25.41v-17.94h18.08v32.43h-74.58v-14.5h8.52v-71.74h-8.52v-14.5h73.83Z"/>
    <path class="cls-2" d="m847.53,88.85v30.79h-18.08v-16.29h-24.66v26.9h25.56v14.95h-25.56v29.89h25.41v-17.94h18.08v32.43h-74.58v-14.5h8.52v-71.74h-8.52v-14.5h73.83Z"/>
    <path class="cls-2" d="m899.69,88.85c5.88,0,11.23.65,16.07,1.94,4.83,1.3,8.99,3.24,12.48,5.83,3.49,2.59,6.2,5.81,8.15,9.64,1.94,3.84,2.92,8.35,2.92,13.53,0,6.58-1.55,12.08-4.63,16.52-3.09,4.43-7.02,7.95-11.81,10.54v.75l8.37,16.29c1.79,3.49,3.79,6.23,5.98,8.22,2.19,2,5.18,2.99,8.97,2.99h1.49v14.5c-3.19.6-6.38.9-9.57.9-3.49,0-6.58-.32-9.27-.97-2.69-.65-5.13-1.64-7.32-2.99-2.19-1.34-4.16-3.11-5.9-5.31-1.74-2.19-3.41-4.83-5.01-7.92l-11.21-21.52h-8.07v23.32h7.77v14.5h-38.86v-14.5h8.52v-71.74h-8.52v-14.5h39.46Zm-8.37,48.43h6.43c6.48,0,11.16-1.62,14.05-4.86,2.89-3.24,4.33-7.35,4.33-12.33s-1.47-9.14-4.41-12.18c-2.94-3.04-7.6-4.56-13.97-4.56h-6.43v33.93Z"/>
    <path class="cls-2" d="m1025.24,116.5h-18.08v-13.3c-3.79-1.2-7.72-1.79-11.81-1.79s-7.27.7-10.16,2.09c-2.89,1.4-4.33,4.04-4.33,7.92,0,2.09.47,3.94,1.42,5.53.95,1.6,2.37,3.06,4.26,4.41,1.89,1.35,4.18,2.69,6.88,4.04,2.69,1.35,5.78,2.87,9.27,4.56,3.59,1.79,7.1,3.64,10.54,5.53,3.44,1.89,6.48,4.14,9.12,6.73,2.64,2.59,4.78,5.58,6.43,8.97,1.64,3.39,2.47,7.47,2.47,12.26,0,5.08-.97,9.42-2.92,13s-4.63,6.5-8.07,8.74c-3.44,2.24-7.5,3.86-12.18,4.86-4.68,1-9.77,1.5-15.25,1.5-2.79,0-5.71-.13-8.74-.37-3.04-.25-6.11-.62-9.19-1.12-3.09-.5-6.08-1.12-8.97-1.87-2.89-.75-5.53-1.62-7.92-2.62v-26.9h17.93v15.39c2.29,1,4.86,1.72,7.7,2.17,2.84.45,5.55.67,8.15.67,1.79,0,3.61-.15,5.46-.45,1.84-.3,3.54-.87,5.08-1.72,1.54-.85,2.79-1.97,3.74-3.36.95-1.39,1.42-3.24,1.42-5.53s-.5-4.11-1.5-5.75c-1-1.64-2.39-3.16-4.18-4.56-1.79-1.39-3.94-2.74-6.43-4.04-2.49-1.29-5.23-2.64-8.22-4.04-3.99-1.89-7.8-3.86-11.43-5.9-3.64-2.04-6.83-4.36-9.57-6.95-2.74-2.59-4.93-5.55-6.58-8.89-1.64-3.34-2.47-7.3-2.47-11.88,0-4.98.97-9.19,2.92-12.63,1.94-3.44,4.63-6.2,8.07-8.3,3.44-2.09,7.47-3.61,12.11-4.56,4.63-.95,9.59-1.42,14.87-1.42s10.59.43,15.62,1.27c5.03.85,9.89,2.02,14.57,3.51v24.81Z"/>
  </g>
  <g>
    <path d="m405.96,240.61v20.79h-5.21v-46.19h5.21v20.52h26.66v-20.52h5.21v46.19h-5.21v-20.79h-26.66Z"/>
    <path d="m482.7,261.39l-13.4-17.95h-13.2v17.95h-5.21v-46.19h19.86c2.55,0,4.85.33,6.9.99,2.05.66,3.79,1.59,5.25,2.81,1.45,1.21,2.57,2.66,3.37,4.36.79,1.69,1.19,3.58,1.19,5.64,0,1.94-.31,3.66-.92,5.18-.62,1.52-1.48,2.84-2.61,3.96-1.12,1.12-2.45,2.06-3.99,2.81-1.54.75-3.21,1.28-5.02,1.58l14.19,18.86h-6.4Zm-3.57-38.96c-2.07-1.61-4.98-2.42-8.73-2.42h-14.29v18.81h14.22c1.72,0,3.31-.22,4.76-.66,1.46-.44,2.71-1.07,3.77-1.89,1.06-.82,1.88-1.82,2.48-3.01.59-1.19.89-2.54.89-4.04,0-2.91-1.04-5.18-3.11-6.79Z"/>
    <path d="m554.26,257.4c-1.3.99-2.69,1.84-4.19,2.54-1.5.71-3.1,1.25-4.82,1.65-1.72.4-3.63.59-5.74.59-3.34,0-6.42-.62-9.24-1.85-2.82-1.23-5.26-2.91-7.32-5.05-2.07-2.13-3.69-4.65-4.85-7.56-1.17-2.9-1.75-6.03-1.75-9.37s.58-6.4,1.75-9.3c1.17-2.9,2.78-5.44,4.85-7.62,2.07-2.18,4.53-3.89,7.39-5.15,2.86-1.25,5.98-1.88,9.37-1.88,2.11,0,4.01.18,5.71.53,1.69.35,3.27.85,4.72,1.49s2.79,1.41,4.03,2.31c1.23.9,2.42,1.9,3.56,3l-3.56,3.83c-1.98-1.85-4.1-3.37-6.37-4.55-2.27-1.19-4.98-1.78-8.15-1.78-2.55,0-4.92.49-7.09,1.45-2.18.97-4.07,2.31-5.67,4.03-1.61,1.72-2.86,3.73-3.76,6.04-.9,2.31-1.35,4.81-1.35,7.49s.45,5.19,1.35,7.52c.9,2.33,2.15,4.35,3.76,6.07,1.6,1.72,3.5,3.07,5.67,4.06,2.18.99,4.54,1.48,7.09,1.48,3.17,0,5.89-.58,8.18-1.75,2.29-1.17,4.53-2.8,6.73-4.92l3.43,3.37c-1.19,1.23-2.43,2.34-3.73,3.33Z"/>
    <path d="m609.13,247.37c-1.14,2.88-2.75,5.42-4.82,7.62-2.07,2.2-4.55,3.95-7.46,5.25-2.9,1.3-6.12,1.95-9.63,1.95s-6.72-.64-9.6-1.91c-2.88-1.28-5.36-3-7.42-5.18-2.07-2.18-3.66-4.71-4.78-7.59-1.12-2.88-1.68-5.93-1.68-9.14s.57-6.26,1.72-9.14c1.14-2.88,2.75-5.42,4.82-7.62,2.07-2.2,4.55-3.95,7.46-5.25,2.9-1.3,6.11-1.95,9.63-1.95s6.72.64,9.6,1.91c2.88,1.28,5.36,3,7.42,5.18,2.07,2.18,3.66,4.71,4.78,7.59,1.12,2.88,1.68,5.93,1.68,9.14s-.57,6.26-1.72,9.14Zm-5.05-16.46c-.9-2.33-2.17-4.35-3.79-6.07-1.63-1.72-3.55-3.08-5.77-4.09-2.22-1.01-4.65-1.52-7.29-1.52s-5.07.5-7.29,1.49c-2.22.99-4.12,2.34-5.71,4.06s-2.83,3.73-3.73,6.04c-.9,2.31-1.35,4.78-1.35,7.42s.45,5.12,1.35,7.46c.9,2.33,2.17,4.36,3.79,6.07,1.63,1.72,3.55,3.08,5.77,4.09,2.22,1.01,4.65,1.52,7.29,1.52s5.07-.5,7.29-1.48c2.22-.99,4.12-2.34,5.71-4.06s2.83-3.73,3.73-6.04c.9-2.31,1.35-4.78,1.35-7.42s-.45-5.12-1.35-7.46Z"/>
    <path d="m655.85,215.2h5.08v46.19h-4.16l-29.83-37.88v37.88h-5.08v-46.19h4.88l29.1,37.02v-37.02Z"/>
    <path d="m678.55,229.67c.35.88.99,1.69,1.91,2.41s2.2,1.39,3.83,1.98c1.63.59,3.72,1.16,6.27,1.68,5.15,1.15,8.94,2.73,11.38,4.76,2.44,2.03,3.66,4.82,3.66,8.39,0,1.98-.39,3.79-1.17,5.42-.78,1.63-1.86,3.02-3.23,4.16-1.37,1.15-3.03,2.03-4.96,2.64-1.94.62-4.05.92-6.33.92-3.7,0-7.07-.6-10.13-1.79-3.06-1.19-5.97-3.04-8.74-5.54l3.23-3.83c2.42,2.2,4.86,3.84,7.32,4.92,2.46,1.08,5.3,1.62,8.51,1.62s5.62-.73,7.49-2.18c1.87-1.45,2.8-3.37,2.8-5.75,0-1.1-.18-2.08-.53-2.94-.35-.86-.97-1.64-1.85-2.34-.88-.71-2.11-1.34-3.67-1.92-1.57-.57-3.56-1.12-5.99-1.65-2.65-.57-4.95-1.23-6.91-1.98-1.96-.75-3.58-1.65-4.86-2.71-1.28-1.06-2.23-2.29-2.84-3.7-.62-1.41-.93-3.08-.93-5.02s.37-3.54,1.12-5.09c.75-1.54,1.8-2.87,3.17-4,1.36-1.12,2.97-2,4.82-2.64,1.85-.64,3.87-.96,6.07-.96,3.39,0,6.35.47,8.88,1.4,2.53.93,4.98,2.33,7.36,4.21l-3.04,4.03c-2.16-1.76-4.32-3.04-6.5-3.83-2.18-.79-4.45-1.19-6.83-1.19-1.5,0-2.85.2-4.06.59-1.21.4-2.24.93-3.1,1.59s-1.52,1.45-1.98,2.38-.69,1.92-.69,2.97.18,2.09.53,2.97Z"/>
    <path d="m753.97,241.66c0,3.39-.46,6.36-1.39,8.91-.92,2.55-2.23,4.69-3.93,6.4-1.69,1.72-3.72,3-6.07,3.86-2.35.86-4.98,1.29-7.89,1.29s-5.47-.43-7.82-1.29c-2.35-.86-4.38-2.13-6.07-3.83-1.69-1.69-3-3.79-3.93-6.3-.92-2.51-1.39-5.39-1.39-8.64v-26.86h5.21v26.53c0,5.01,1.24,8.87,3.73,11.55,2.48,2.68,5.95,4.03,10.39,4.03s7.65-1.28,10.16-3.83c2.51-2.55,3.76-6.36,3.76-11.42v-26.86h5.21v26.46Z"/>
    <path d="m766.31,215.2h5.21v41.37h26v4.82h-31.21v-46.19Z"/>
    <path d="m817.98,261.39h-5.21v-41.37h-15.51v-4.82h36.23v4.82h-15.51v41.37Z"/>
    <path d="m880.4,261.39h-5.61l-5.41-12.21h-25.14l-5.48,12.21h-5.34l21.05-46.52h4.88l21.05,46.52Zm-23.56-40.38l-10.56,23.56h21.05l-10.49-23.56Z"/>
    <path d="m923.49,215.2h5.08v46.19h-4.16l-29.83-37.88v37.88h-5.08v-46.19h4.88l29.1,37.02v-37.02Z"/>
    <path d="m977.5,257.4c-1.3.99-2.7,1.84-4.19,2.54-1.5.71-3.1,1.25-4.82,1.65-1.72.4-3.63.59-5.74.59-3.34,0-6.42-.62-9.24-1.85-2.82-1.23-5.26-2.91-7.32-5.05-2.07-2.13-3.69-4.65-4.85-7.56-1.17-2.9-1.75-6.03-1.75-9.37s.58-6.4,1.75-9.3c1.17-2.9,2.78-5.44,4.85-7.62,2.07-2.18,4.53-3.89,7.39-5.15,2.86-1.25,5.98-1.88,9.37-1.88,2.11,0,4.01.18,5.71.53,1.69.35,3.27.85,4.72,1.49s2.79,1.41,4.03,2.31c1.23.9,2.42,1.9,3.56,3l-3.56,3.83c-1.98-1.85-4.1-3.37-6.37-4.55-2.27-1.19-4.98-1.78-8.15-1.78-2.55,0-4.92.49-7.09,1.45-2.18.97-4.07,2.31-5.67,4.03-1.61,1.72-2.86,3.73-3.76,6.04-.9,2.31-1.35,4.81-1.35,7.49s.45,5.19,1.35,7.52c.9,2.33,2.15,4.35,3.76,6.07,1.61,1.72,3.5,3.07,5.67,4.06,2.18.99,4.54,1.48,7.09,1.48,3.17,0,5.89-.58,8.18-1.75,2.29-1.17,4.53-2.8,6.73-4.92l3.43,3.37c-1.19,1.23-2.43,2.34-3.73,3.33Z"/>
    <path d="m1009.34,261.39h-5.21v-18.28l-19.2-27.91h6.33l15.54,23.09,15.67-23.09h6.07l-19.2,27.85v18.34Z"/>
  </g>
  <g>
    <path class="cls-1" d="m168.12,87.81s.04.03.06.04c7.15-11.7,15.51-22.65,24.92-32.63-17.59-12.22-39.52-18.05-60.86-16.18-55.27,4.86-97.54,61.16-79.04,115.31,10.41,30.47,38.73,53.7,70.43,59.35,15.31,2.73,31.35,1.61,45.95-3.74,23.71-8.69,42-27.58,59.4-45.88,17.23-18.11,34.45-36.23,51.68-54.34,1.75-1.84,3.59-3.89,3.76-6.42.24-3.56-2.89-6.38-5.91-8.28-5.92-3.74-13.28-7.3-20.49-8.18-10.7-1.32-15.43,5.21-22.46,12.17-18.33,18.16-36.67,36.32-55,54.47-5.62,5.56-11.32,11.19-18.17,15.13-19.44,11.17-46.8,5.33-60.21-12.64-13.42-17.97-11.4-45.61,4.27-61.65,15.65-16.03,42.94-18.8,61.67-6.52Z"/>
    <path class="cls-2" d="m169.55,149.57c.47-.42-3.2-18.08-3.26-20.28-.2-7.23.59-14.49,2.27-21.53,3.52-14.67,10.92-27.58,21.29-38.45,20.85-21.84,49.52-34.38,80.04-29.52,28.49,4.54,54.08,24.15,66.08,50.38,12,26.23,10.15,58.3-4.6,83.09-14.75,24.79-41.93,41.69-70.67,44.19-19.4,1.68-40.1-3.44-53.91-17.16,8.52-9.13,17.03-18.25,25.55-27.38.85-.92,1.76-1.86,2.94-2.28,1.75-.61,3.66.09,5.42.7,11.07,3.85,23.77,4.13,34.18-1.25,7.92-4.09,14.02-11.17,18.16-19.07,7.82-14.9,8.83-33.69.78-48.47-8.05-14.78-25.67-24.34-42.19-21.14-10.24,1.98-19.09,8.27-27.08,14.98-19.54,16.41-36,36.16-55,53.19Z"/>
  </g>
  <g>
    <path d="m86.4,237.17c1.12.29,1.53.71,1.53,1.83v5.71c0,.59-.29.88-.88.88h-12.55c-3.48,0-5.71.94-6.83,2.83-1.06,1.88-1.59,5.54-1.59,11.02s.53,9.13,1.59,11.08c1.12,1.94,3.36,2.89,6.83,2.89h12.55c.59,0,.88.29.88.88v5.71c0,1-.53,1.59-1.53,1.83-2.89.71-6.89,1.06-11.9,1.06-7.84,0-12.43-1.24-15.49-4.95-3-3.77-3.95-9.13-3.95-18.5s1.3-15.26,3.95-18.5c2.65-3.24,7.84-4.83,15.49-4.83,4.77,0,8.78.35,11.9,1.06Z"/>
    <path d="m131.88,236.46c.59,0,.88.29.88.94v44.19c0,.65-.29,1-.88,1h-9.13c-.59,0-.88-.35-.88-1v-17.14h-17.26v17.14c0,.65-.29,1-.88,1h-9.13c-.59,0-.88-.35-.88-1v-44.19c0-.65.29-.94.88-.94h9.13c.59,0,.88.29.88.94v17.44h17.26v-17.44c0-.65.29-.94.88-.94h9.13Z"/>
    <path d="m150.56,236.46c.59,0,.88.29.88.94v44.19c0,.65-.29,1-.88,1h-9.13c-.59,0-.88-.35-.88-1v-44.19c0-.65.29-.94.88-.94h9.13Z"/>
    <path d="m207.05,236.4c.41,0,.65.35.71,1l4.48,44.19c.06.65-.24,1-.88,1h-9.13c-.53,0-.82-.35-.88-1l-2.53-25.69-9.48,24.33c-.29.65-.71.94-1.3.94h-6.3c-.65,0-1.06-.29-1.3-.94l-9.49-24.33-2.59,25.69c-.06.65-.35,1-.88,1h-9.13c-.65,0-.94-.35-.88-1l4.48-44.19c.06-.65.35-.94.77-.94h8.37c2.18,0,3.06.53,3.77,2.36l10.02,26.33,10.02-26.39c.77-1.88,1.65-2.36,3.77-2.36h8.42Z"/>
    <path d="m249.64,236.46c.65,0,.94.29.94.88v7.72c0,.59-.29.88-.94.88h-20.5v9.19h18.79c.65,0,.94.29.94.88v7.31c0,.59-.29.88-.94.88h-18.79v8.9h20.5c.65,0,.94.29.94.88v7.72c0,.59-.29.88-.94.88h-30.52c-.59,0-.88-.29-.88-.94v-44.24c0-.65.29-.94.88-.94h30.52Z"/>
    <path d="m288.52,239.53c2.53,2.24,3.77,6.25,3.77,12.08,0,8.72-2.36,12.43-8.72,13.84l10.02,15.97c.47.65.18,1.18-.71,1.18h-9.19c-1.24,0-1.71-.35-2.36-1.3l-9.6-15.14h-3.77v15.49c0,.77-.18.94-.88.94h-9.13c-.71,0-.88-.18-.88-.94v-44.01c0-.53.29-.77.88-.83,5.77-.47,11.55-.71,17.26-.71,6.36,0,10.78,1.12,13.31,3.42Zm-20.56,6.07v12.43h6.07c2.83,0,4.71-.41,5.71-1.18,1-.83,1.47-2.47,1.47-4.89,0-4.89-1.59-6.36-7.19-6.36h-6.07Z"/>
    <path d="m323.93,237.29c1.18.77,2.24,2.71,3.12,5.95l10.49,38.41c.12.65-.12.94-.77.94h-9.01c-.41,0-.65-.29-.83-.94l-3.18-11.9h-14.79l-3.3,11.9c-.18.65-.41.94-.77.94h-9.01c-.65,0-.88-.29-.77-.94l10.55-38.41c.88-3.24,1.94-5.18,3.12-5.95s3.71-1.18,7.54-1.18,6.42.41,7.6,1.18Zm-8.6,8.84l-3.95,14.73h9.96l-4.01-14.73c-.24-.77-.35-.94-1.06-.94-.65,0-.71.18-.94.94Z"/>
  </g>
</svg>